# xmcd
# Copyright (C) 1995-1998 Ti Kan
#
# Track frame offsets:
#       150
#       20297
#       35437
#       53487
#       69510
#       88550
#       110937
#       129847
#       147450
#       163297
#       175812
#
# Disc length: 2612 seconds
#
# Revision: 0
# Processed by: cddbd v1.4PL0 Copyright (c) Steve Scherf et al.
# Submitted via: CD-Transfer v1.0
#
DISCID=930a320b
DTITLE=Lazy Bear Band - Tough Work
DYEAR=2001
DGENRE=
TTITLE0=Men At War
TTITLE1=Blue Track
TTITLE2=Is It True
TTITLE3=We's Das Isch
TTITLE4=Krokodil Summer
TTITLE5=Timeless Time
TTITLE6=Breaking The Rules
TTITLE7=Reliable Man
TTITLE8=Nothing Really Changes
TTITLE9=Jealous Woman
TTITLE10=Any More
EXTD=
EXTT0=
EXTT1=
EXTT2=
EXTT3=
EXTT4=
EXTT5=
EXTT6=
EXTT7=
EXTT8=
EXTT9=
EXTT10=
PLAYORDER=
